<svg width="512" height="512" viewBox="0 0 512 512" fill="none" xmlns="http://www.w3.org/2000/svg">
  <rect width="512" height="512" fill="#1E90FF" opacity="0.8"/>
  <path d="M0 64C32 48 64 32 96 48C128 64 160 96 192 112C224 128 256 128 288 112C320 96 352 64 384 48C416 32 448 32 480 48C496 56 512 64 512 64V512H0V64Z" fill="#4169E1" opacity="0.5"/>
  <path d="M0 128C32 112 64 96 96 112C128 128 160 160 192 176C224 192 256 192 288 176C320 160 352 128 384 112C416 96 448 96 480 112C496 120 512 128 512 128V512H0V128Z" fill="#87CEFA" opacity="0.3"/>
  <path d="M0 192C32 176 64 160 96 176C128 192 160 224 192 240C224 256 256 256 288 240C320 224 352 192 384 176C416 160 448 160 480 176C496 184 512 192 512 192V512H0V192Z" fill="#ADD8E6" opacity="0.2"/>
</svg>
